<?xml version="1.0" encoding="UTF-8"?>
<svg width="64" height="64" viewBox="0 0 64 64" fill="none" xmlns="http://www.w3.org/2000/svg">
    <path d="M32 8C18.745 8 8 18.745 8 32C8 45.255 18.745 56 32 56C45.255 56 56 45.255 56 32C56 18.745 45.255 8 32 8Z" fill="#2B6CB0" fill-opacity="0.1"/>
    <path d="M32 8C18.745 8 8 18.745 8 32C8 45.255 18.745 56 32 56C45.255 56 56 45.255 56 32C56 18.745 45.255 8 32 8Z" stroke="#2B6CB0" stroke-width="2"/>
    <path d="M32 16C23.164 16 16 23.164 16 32C16 40.836 23.164 48 32 48C40.836 48 48 40.836 48 32C48 23.164 40.836 16 32 16Z" fill="#2B6CB0" fill-opacity="0.2"/>
    <path d="M32 16C23.164 16 16 23.164 16 32C16 40.836 23.164 48 32 48C40.836 48 48 40.836 48 32C48 23.164 40.836 16 32 16Z" stroke="#2B6CB0" stroke-width="2"/>
    <path d="M32 24C27.582 24 24 27.582 24 32C24 36.418 27.582 40 32 40C36.418 40 40 36.418 40 32C40 27.582 36.418 24 32 24Z" fill="#2B6CB0"/>
    <path d="M32 24C27.582 24 24 27.582 24 32C24 36.418 27.582 40 32 40C36.418 40 40 36.418 40 32C40 27.582 36.418 24 32 24Z" stroke="#2B6CB0" stroke-width="2"/>
</svg> 