<?xml version="1.0" encoding="UTF-8"?>
<svg width="64" height="64" viewBox="0 0 64 64" fill="none" xmlns="http://www.w3.org/2000/svg">
    <path d="M12 32C12 20.954 20.954 12 32 12C43.046 12 52 20.954 52 32C52 43.046 43.046 52 32 52C20.954 52 12 43.046 12 32Z" fill="#2B6CB0" fill-opacity="0.1"/>
    <path d="M12 32C12 20.954 20.954 12 32 12C43.046 12 52 20.954 52 32C52 43.046 43.046 52 32 52C20.954 52 12 43.046 12 32Z" stroke="#2B6CB0" stroke-width="2"/>
    <path d="M24 32C24 27.5817 27.5817 24 32 24C36.4183 24 40 27.5817 40 32C40 36.4183 36.4183 40 32 40C27.5817 40 24 36.4183 24 32Z" fill="#2B6CB0" fill-opacity="0.2"/>
    <path d="M24 32C24 27.5817 27.5817 24 32 24C36.4183 24 40 27.5817 40 32C40 36.4183 36.4183 40 32 40C27.5817 40 24 36.4183 24 32Z" stroke="#2B6CB0" stroke-width="2"/>
    <path d="M32 28C33.1046 28 34 28.8954 34 30C34 31.1046 33.1046 32 32 32C30.8954 32 30 31.1046 30 30C30 28.8954 30.8954 28 32 28Z" fill="#2B6CB0"/>
    <path d="M32 28C33.1046 28 34 28.8954 34 30C34 31.1046 33.1046 32 32 32C30.8954 32 30 31.1046 30 30C30 28.8954 30.8954 28 32 28Z" stroke="#2B6CB0" stroke-width="2"/>
</svg> 