<?xml version="1.0" encoding="UTF-8"?>
<svg width="80" height="80" viewBox="0 0 80 80" fill="none" xmlns="http://www.w3.org/2000/svg">
    <path d="M40 4C20.1177 4 4 20.1177 4 40C4 59.8823 20.1177 76 40 76C59.8823 76 76 59.8823 76 40C76 20.1177 59.8823 4 40 4Z" fill="#2B6CB0" fill-opacity="0.1"/>
    <path d="M40 4C20.1177 4 4 20.1177 4 40C4 59.8823 20.1177 76 40 76C59.8823 76 76 59.8823 76 40C76 20.1177 59.8823 4 40 4Z" stroke="#2B6CB0" stroke-width="2"/>
    <path d="M40 12C24.536 12 12 24.536 12 40C12 55.464 24.536 68 40 68C55.464 68 68 55.464 68 40C68 24.536 55.464 12 40 12Z" fill="#2B6CB0" fill-opacity="0.2"/>
    <path d="M40 12C24.536 12 12 24.536 12 40C12 55.464 24.536 68 40 68C55.464 68 68 55.464 68 40C68 24.536 55.464 12 40 12Z" stroke="#2B6CB0" stroke-width="2"/>
    <path d="M40 20C28.954 20 20 28.954 20 40C20 51.046 28.954 60 40 60C51.046 60 60 51.046 60 40C60 28.954 51.046 20 40 20Z" fill="#2B6CB0"/>
    <path d="M40 20C28.954 20 20 28.954 20 40C20 51.046 28.954 60 40 60C51.046 60 60 51.046 60 40C60 28.954 51.046 20 40 20Z" stroke="#2B6CB0" stroke-width="2"/>
    <path d="M40 28L48 40L40 52L32 40L40 28Z" fill="white"/>
    <path d="M40 28L48 40L40 52L32 40L40 28Z" stroke="#2B6CB0" stroke-width="2"/>
</svg> 