<?xml version="1.0" encoding="UTF-8"?>
<svg width="80" height="80" viewBox="0 0 80 80" fill="none" xmlns="http://www.w3.org/2000/svg">
    <path d="M20 20H60V60H20V20Z" fill="#2B6CB0" fill-opacity="0.1"/>
    <path d="M20 20H60V60H20V20Z" stroke="#2B6CB0" stroke-width="2"/>
    <path d="M28 28H52V52H28V28Z" fill="#2B6CB0" fill-opacity="0.2"/>
    <path d="M28 28H52V52H28V28Z" stroke="#2B6CB0" stroke-width="2"/>
    <path d="M36 36H44V44H36V36Z" fill="#2B6CB0"/>
    <path d="M36 36H44V44H36V36Z" stroke="#2B6CB0" stroke-width="2"/>
    <path d="M40 12L48 20L40 28L32 20L40 12Z" fill="#2B6CB0"/>
    <path d="M40 12L48 20L40 28L32 20L40 12Z" stroke="#2B6CB0" stroke-width="2"/>
    <path d="M40 52L48 60L40 68L32 60L40 52Z" fill="#2B6CB0"/>
    <path d="M40 52L48 60L40 68L32 60L40 52Z" stroke="#2B6CB0" stroke-width="2"/>
</svg> 