<?xml version="1.0" encoding="UTF-8"?>
<svg width="80" height="80" viewBox="0 0 80 80" fill="none" xmlns="http://www.w3.org/2000/svg">
    <path d="M40 4L76 22V38C76 51.2548 66.2548 61 53 61C39.7452 61 30 51.2548 30 38V22L40 4Z" fill="#2B6CB0" fill-opacity="0.1"/>
    <path d="M40 4L76 22V38C76 51.2548 66.2548 61 53 61C39.7452 61 30 51.2548 30 38V22L40 4Z" stroke="#2B6CB0" stroke-width="2"/>
    <path d="M40 12L68 26V38C68 45.732 61.732 52 54 52C46.268 52 40 45.732 40 38V26L40 12Z" fill="#2B6CB0" fill-opacity="0.2"/>
    <path d="M40 12L68 26V38C68 45.732 61.732 52 54 52C46.268 52 40 45.732 40 38V26L40 12Z" stroke="#2B6CB0" stroke-width="2"/>
    <path d="M40 20L60 30V38C60 41.3137 57.3137 44 54 44C50.6863 44 48 41.3137 48 38V30L40 20Z" fill="#2B6CB0"/>
    <path d="M40 20L60 30V38C60 41.3137 57.3137 44 54 44C50.6863 44 48 41.3137 48 38V30L40 20Z" stroke="#2B6CB0" stroke-width="2"/>
    <path d="M40 28L52 34V38C52 39.1046 51.1046 40 50 40C48.8954 40 48 39.1046 48 38V34L40 28Z" fill="#2B6CB0"/>
    <path d="M40 28L52 34V38C52 39.1046 51.1046 40 50 40C48.8954 40 48 39.1046 48 38V34L40 28Z" stroke="#2B6CB0" stroke-width="2"/>
</svg> 