<?xml version="1.0" encoding="UTF-8"?>
<svg width="100" height="100" viewBox="0 0 100 100" fill="none" xmlns="http://www.w3.org/2000/svg">
    <path d="M0 50C0 50 25 0 50 0C75 0 100 50 100 50C100 50 75 100 50 100C25 100 0 50 0 50Z" fill="white" fill-opacity="0.05"/>
    <path d="M25 50C25 50 37.5 25 50 25C62.5 25 75 50 75 50C75 50 62.5 75 50 75C37.5 75 25 50 25 50Z" fill="white" fill-opacity="0.05"/>
    <path d="M50 50C50 50 56.25 37.5 62.5 37.5C68.75 37.5 75 50 75 50C75 50 68.75 62.5 62.5 62.5C56.25 62.5 50 50 50 50Z" fill="white" fill-opacity="0.05"/>
</svg> 